<svg xmlns="http://www.w3.org/2000/svg" viewBox="0 0 1400 500" width="1400" height="500">

     <style>
     .canada, .mexico, .us, #avg, .axis{
          stroke: #222222;
          stroke-width: 3;
          opacity: .85;
     }

     .canada:hover{
          stroke:#FFF00B;
     }

     .mexico:hover{
          stroke:#FF3333;
     }

     .us:hover{
          stroke:#0BFFD2;
     }

     #avg:hover{
          stroke: #FF0BEC;
     }
     .label{
          font-size 60;
          font-weight: bold;
          
     }
     .Verticallabel{
          writing-mode: vertical-lr; 
          
     }
     
     </style>


     
     <g class = "canada">
     {% for point in endpoints["Canada"] %}
          <line x1="{{100 + (loop.index0*20)}}" y1="{{400-(point[0] - 55) * 10}}" x2="{{(100 + (loop.index0+1)*20)}}" y2="{{400-(point[1] - 55) * 10}}"/>
     {% endfor %}
     </g>

     <g class = "mexico">
     {% for point in endpoints["Mexico"] %}
               <line x1="{{100 + (loop.index0*20)}}" y1="{{400-(point[0] - 55) * 10}}" x2="{{(100 + (loop.index0+1)*20)}}" y2="{{400-(point[1] - 55) * 10}}" stroke-linecap="round"/>
     {% endfor %}
     </g>

     <g class = "us">
     {% for point in endpoints["US"] %}
          <line x1="{{100 + (loop.index0*20)}}" y1="{{400-(point[0] - 55) * 10}}" x2="{{(100 + (loop.index0+1)*20)}}" y2="{{400-(point[1] - 55) * 10}}" stroke-linecap="round"/>
     {% endfor %}
     </g>

    {% for year in years %}

     {% if year[3] == "0" %}
          <text class="label" x="{{100 +( loop.index0*20)}}" y="430" text-anchor="middle">{{year}}</text>
     {% endif %}
    {% endfor %}

     {% for i in range(7) %}
          <text class="label" x="80" y="{{400 - (loop.index0 * 50)}}" text-anchor="middle">{{55 + (loop.index0 * 5)}}</text>
     {% endfor %}


     <line id = "avg" x1="100" y1="{{400 - (avg - 55) * 10}}" x2="1300" y2="{{400 - (avg - 55) * 10}}" stroke-linecap="round"/>
     <line class="axis" x1="100" y1="400" x2="1350" y2="400" stroke-linecap="round"/>
     <line class="axis" x1="100" y1="90" x2="100" y2="400 " stroke-linecap="round"/>

     <text x = "1310" y = "137">Canada</text>
     <text x = "1310" y = "185">US</text>
     <text x = "1310" y = "220">Average</text>
     <text x = "1310" y = "260">Mexico</text>

     <text class="label" x="690" y="460" text-anchor="middle">Year</text>
     <text class="label" x="690" y="100" text-anchor="middle">Average Lifespan For Countires from 1960-2020</text>
     <text class="Verticallabel" x="55" y="280" text-anchor="middle">Average Lifespan</text>

</svg>
